# xmcd
#
# Track frame offsets:
#	150
#	13399
#	23409
#	34432
#	46043
#	60483
#	70615
#	82093
#	93817
#	104070
#	117199
#	126757
#	138385
#	151167
#	163961
#	176087
#	185255
#	195776
#	206031
#	218094
#	227301
#
# Disc length: 3196 seconds
#
# Revision: 1
# Processed by: cddbd v1.5.1PL0 Copyright (c) Steve Scherf et al.
# Submitted via: audiograbber 1.83.01
#
DISCID=150c7a15
DTITLE=Jim Reeves - Gentleman Jim CD1
DYEAR=1900
DGENRE=
TTITLE0=Distant Drums
TTITLE1=It Hurts So Much (To See You G
TTITLE2=He'll Have to Go
TTITLE3=Adios amigo
TTITLE4=Guilty
TTITLE5=Blue Boy
TTITLE6=That's When I See The Blues
TTITLE7=I Missed Me
TTITLE8=Iheard A Heart Break Tonight
TTITLE9=Four Walls
TTITLE10=Billy Bayou
TTITLE11=Younder comes a sucker
TTITLE12=not until the next time
TTITLE13=This World Is Not My Home
TTITLE14=Am I Losing You
TTITLE15=Home
TTITLE16=Losing Your Love
TTITLE17=Partners
TTITLE18=Mexican Joe
TTITLE19=According To My Heart
TTITLE20=Nobody's Fool
EXTD=
EXTT0=
EXTT1=
EXTT2=
EXTT3=
EXTT4=
EXTT5=
EXTT6=
EXTT7=
EXTT8=
EXTT9=
EXTT10=
EXTT11=
EXTT12=
EXTT13=
EXTT14=
EXTT15=
EXTT16=
EXTT17=
EXTT18=
EXTT19=
EXTT20=
PLAYORDER=
